<svg width="1033" height="1027" viewBox="0 0 1033 1027" fill="none" xmlns="http://www.w3.org/2000/svg">
<path d="M126 31H907.5C959.967 31 1002.5 73.5329 1002.5 126V901C1002.5 953.467 959.967 996 907.5 996H126C73.5329 996 31 953.467 31 901V126C31 73.5329 73.5329 31 126 31Z" fill="url(#paint0_linear_4_41)"/>
<path d="M907.5 31H126M907.5 31C959.967 31 1002.5 73.5329 1002.5 126M907.5 31V31C959.967 31 1002.5 73.533 1002.5 126V126M126 31C73.5329 31 31 73.5329 31 126M126 31V31C73.533 31 31 73.533 31 126V126M31 126V901M31 901C31 953.467 73.5329 996 126 996M31 901V901C31 953.467 73.5329 996 126 996V996M126 996H907.5M907.5 996C959.967 996 1002.5 953.467 1002.5 901M907.5 996V996C959.967 996 1002.5 953.467 1002.5 901V901M1002.5 901V126" stroke="black" stroke-width="61"/>
<path d="M126 31H907.5C959.967 31 1002.5 73.5329 1002.5 126V901C1002.5 953.467 959.967 996 907.5 996H126C73.5329 996 31 953.467 31 901V126C31 73.5329 73.5329 31 126 31Z" fill="url(#paint1_linear_4_41)"/>
<path d="M907.5 31H126M907.5 31C959.967 31 1002.5 73.5329 1002.5 126M907.5 31V31C959.967 31 1002.5 73.533 1002.5 126V126M126 31C73.5329 31 31 73.5329 31 126M126 31V31C73.533 31 31 73.533 31 126V126M31 126V901M31 901C31 953.467 73.5329 996 126 996M31 901V901C31 953.467 73.5329 996 126 996V996M126 996H907.5M907.5 996C959.967 996 1002.5 953.467 1002.5 901M907.5 996V996C959.967 996 1002.5 953.467 1002.5 901V901M1002.5 901V126" stroke="black" stroke-width="61"/>
<path d="M126 31H907.5C959.967 31 1002.5 73.5329 1002.5 126V901C1002.5 953.467 959.967 996 907.5 996H126C73.5329 996 31 953.467 31 901V126C31 73.5329 73.5329 31 126 31Z" fill="url(#paint2_linear_4_41)"/>
<path d="M907.5 31H126M907.5 31C959.967 31 1002.5 73.5329 1002.5 126M907.5 31V31C959.967 31 1002.5 73.533 1002.5 126V126M126 31C73.5329 31 31 73.5329 31 126M126 31V31C73.533 31 31 73.533 31 126V126M31 126V901M31 901C31 953.467 73.5329 996 126 996M31 901V901C31 953.467 73.5329 996 126 996V996M126 996H907.5M907.5 996C959.967 996 1002.5 953.467 1002.5 901M907.5 996V996C959.967 996 1002.5 953.467 1002.5 901V901M1002.5 901V126" stroke="black" stroke-width="61"/>
<path d="M126 31H907.5C959.967 31 1002.5 73.5329 1002.5 126V901C1002.5 953.467 959.967 996 907.5 996H126C73.5329 996 31 953.467 31 901V126C31 73.5329 73.5329 31 126 31Z" fill="url(#paint3_linear_4_41)"/>
<path d="M907.5 31H126M907.5 31C959.967 31 1002.5 73.5329 1002.5 126M907.5 31V31C959.967 31 1002.5 73.533 1002.5 126V126M126 31C73.5329 31 31 73.5329 31 126M126 31V31C73.533 31 31 73.533 31 126V126M31 126V901M31 901C31 953.467 73.5329 996 126 996M31 901V901C31 953.467 73.5329 996 126 996V996M126 996H907.5M907.5 996C959.967 996 1002.5 953.467 1002.5 901M907.5 996V996C959.967 996 1002.5 953.467 1002.5 901V901M1002.5 901V126" stroke="black" stroke-width="61"/>

<path d="M37 274H996.5M37 510.5H996.5M37 753.5H996.5M523 34V267.5M771.5 34V504.5M523 504.5V747.5M280 504.5V993M907.5 31H126C73.5329 31 31 73.5329 31 126V901C31 953.467 73.5329 996 126 996H907.5C959.967 996 1002.5 953.467 1002.5 901V126C1002.5 73.5329 959.967 31 907.5 31Z" stroke="black" stroke-width="61"/>
</svg>
